<svg width="32" height="32" viewBox="0 0 32 32" fill="none" xmlns="http://www.w3.org/2000/svg"><path fill-rule="evenodd" clip-rule="evenodd" d="M18.335 7.222h-4.667V4.889h-2v2.333H9.335a2.111 2.111 0 00-2.11 2.111v2.333H4.89v2h2.333v4.667H4.891v2h2.333v2.333a2.11 2.11 0 002.111 2.111h2.333v2.334h2v-2.334h4.667v2.334h2v-2.334h2.334a2.111 2.111 0 002.11-2.11v-2.334h2.334v-2H24.78v-4.667h2.333v-2H24.78V9.333a2.111 2.111 0 00-2.111-2.111h-2.334V4.889h-2v2.333zm-9 2a.111.111 0 00-.11.111v13.333a.11.11 0 00.11.111H22.67c.06 0 .11-.05.11-.11V9.332a.111.111 0 00-.11-.111H9.335z" fill="#fff" fill-opacity=".75"/></svg>