<svg width="32" height="32" viewBox="0 0 32 32" fill="none" xmlns="http://www.w3.org/2000/svg"><path fill-rule="evenodd" clip-rule="evenodd" d="M14.931 15.376V4h2.134v11.376l10.123 5.694-1.046 1.86-10.144-5.706L5.854 22.93 4.81 21.07l10.123-5.694z" fill="#999"/><path fill-rule="evenodd" clip-rule="evenodd" d="M16.522 3.07a1.067 1.067 0 00-1.046 0l-10.667 6a1.067 1.067 0 00-.543.93v12c0 .386.207.741.543.93l10.667 6c.325.183.721.183 1.046 0l10.667-6c.335-.189.543-.544.543-.93V10c0-.385-.208-.74-.543-.93l-10.667-6zM6.399 11.825v9.552l8.533 4.8v-9.552l-8.533-4.8zm10.667 14.352l8.533-4.8v-9.552l-8.533 4.8v9.552zM24.49 10l-8.491-4.776L7.508 10l8.491 4.776L24.489 10z" fill="#000" fill-opacity=".95"/></svg>