<svg width="32" height="32" viewBox="0 0 32 32" fill="none" xmlns="http://www.w3.org/2000/svg"><path fill-rule="evenodd" clip-rule="evenodd" d="M6.567 7.834c0-.7.568-1.267 1.267-1.267h3.5c.699 0 1.266.568 1.266 1.267V12.6H7.834a1.268 1.268 0 01-1.267-1.266v-3.5zm1.267-3.4a3.4 3.4 0 00-3.4 3.4v3.5a3.4 3.4 0 003.4 3.4h6.9v-6.9a3.4 3.4 0 00-3.4-3.4h-3.5zm11.566 3.4c0-.7.568-1.267 1.267-1.267h3.5c.699 0 1.267.568 1.267 1.267v3.5c0 .699-.568 1.266-1.267 1.266H19.4V7.834zm1.267-3.4a3.4 3.4 0 00-3.4 3.4v6.9h6.9a3.4 3.4 0 003.4-3.4v-3.5a3.4 3.4 0 00-3.4-3.4h-3.5zm-3.4 12.833h6.9a3.4 3.4 0 013.4 3.4v3.5a3.4 3.4 0 01-3.4 3.4h-3.5a3.4 3.4 0 01-3.4-3.4v-6.9zM19.4 19.4v4.767c0 .699.568 1.267 1.267 1.267h3.5c.699 0 1.267-.568 1.267-1.267v-3.5c0-.699-.568-1.267-1.267-1.267H19.4zM6.567 20.667c0-.699.568-1.267 1.267-1.267H12.6v4.767c0 .699-.567 1.267-1.266 1.267h-3.5a1.268 1.268 0 01-1.267-1.267v-3.5zm1.267-3.4a3.4 3.4 0 00-3.4 3.4v3.5a3.4 3.4 0 003.4 3.4h3.5a3.4 3.4 0 003.4-3.4v-6.9h-6.9z" fill="#000" fill-opacity=".95"/></svg>