<svg width="31" height="31" viewBox="0 0 31 31" fill="none" xmlns="http://www.w3.org/2000/svg"><path fill-rule="evenodd" clip-rule="evenodd" d="M5.427 15.5a9.573 9.573 0 1119.146 0 9.573 9.573 0 11-19.147 0zM15 4C8.649 4 3.5 9.149 3.5 15.5S8.649 27 15 27s11.5-5.149 11.5-11.5S21.351 4 15 4zm0 6.036a5.464 5.464 0 100 10.928 5.464 5.464 0 000-10.928zM7.61 15.5a7.39 7.39 0 1114.78 0 7.39 7.39 0 01-14.78 0zm8.944-1.554A2.198 2.198 0 0015 13.302v-1.926a4.125 4.125 0 014.124 4.124h-1.926c0-.583-.232-1.142-.644-1.554z" fill="#000" fill-opacity=".95"/></svg>