<svg width="32" height="32" viewBox="0 0 32 32" fill="none" xmlns="http://www.w3.org/2000/svg"><path d="M16.63 11.59l-3.1 6.199a.27.27 0 00.242.39h1.563l-.471 3.77c-.038.3.374.425.51.154l3.1-6.2a.27.27 0 00-.242-.39h-1.563l.471-3.77c.038-.3-.374-.425-.51-.154z" fill="#000" fill-opacity=".95"/><path d="M14.001 4.268c-.736 0-1.333.597-1.333 1.333H10.67A2.4 2.4 0 008.27 8v19.733h13.066a2.4 2.4 0 002.4-2.4V8.001a2.4 2.4 0 00-2.4-2.4h-2.001c0-.736-.597-1.333-1.334-1.333h-4zM10.67 7.734h10.667c.148 0 .267.12.267.267v17.333c0 .148-.12.267-.267.267H10.403V8c0-.147.12-.267.266-.267z" fill="#000" fill-opacity=".95"/></svg>