<svg width="32" height="32" viewBox="0 0 32 32" fill="none" xmlns="http://www.w3.org/2000/svg"><path d="M10.842 4A2.323 2.323 0 008.52 6.323V25a2 2 0 002 2h10.645a2.323 2.323 0 002.322-2.323V6.323A2.323 2.323 0 0021.165 4H10.842zm-.258 2.323c0-.143.116-.258.258-.258h10.323c.142 0 .258.115.258.258v18.354a.258.258 0 01-.258.259H10.584V6.323z" fill="#000" fill-opacity=".95"/><path d="M14.462 22.217a.645.645 0 01-.912-.912l4.249-4.25a.645.645 0 01.912.913l-4.249 4.25zm1.668 1.29a.645.645 0 010-.912l2.96-2.958a.645.645 0 11.912.912l-2.959 2.958a.645.645 0 01-.912 0z" fill="#000" fill-opacity=".95"/><path d="M14.462 22.217a.645.645 0 01-.912-.912l4.249-4.25a.645.645 0 01.912.913l-4.249 4.25zm1.668 1.29a.645.645 0 010-.912l2.96-2.958a.645.645 0 11.912.912l-2.959 2.958a.645.645 0 01-.912 0z" stroke="#000" stroke-width=".2"/></svg>