<svg width="32" height="32" viewBox="0 0 32 32" fill="none" xmlns="http://www.w3.org/2000/svg"><path d="M8.657 24.318c.66 0 1.257.377 1.61.889l-.383.333c-.399-.457-.821-.658-1.227-.658-.76 0-1.379.658-1.379 1.468 0 .81.618 1.473 1.38 1.47.665-.003 1.057-.525 1.18-.666l.419.325c-.384.572-.93.903-1.6.903-1.07 0-1.942-.912-1.942-2.032s.871-2.032 1.942-2.032zm16.104.023a2.085 2.085 0 011.663.466l-.35.412a1.586 1.586 0 00-1.226-.325c-.373.058-.557.284-.566.537-.009.219.148.39.488.492.152.045.381.113.587.167.237.063.514.15.69.281.27.204.453.505.453.871 0 .633-.477.999-.93 1.09-.572.115-1.31.028-1.988-.646l.358-.4c.578.535 1.136.6 1.521.522a.579.579 0 00.486-.531.578.578 0 00-.115-.38c-.134-.173-.384-.242-.548-.287-.237-.067-.492-.124-.666-.171-.613-.17-.928-.538-.9-1.036.033-.522.451-.968 1.043-1.061zm-10.384.099h-.596v3.736h.596V24.44zm7.056-.122c-1.071 0-1.945.912-1.945 2.032s.872 2.032 1.945 2.032c1.07 0 1.944-.912 1.944-2.032-.002-1.12-.873-2.032-1.944-2.032zm0 3.501c-.761 0-1.379-.658-1.379-1.469 0-.81.618-1.468 1.379-1.468.76 0 1.378.658 1.378 1.468 0 .81-.62 1.47-1.378 1.47zm-9.466-2.401c-.783 0-1.42.641-1.42 1.43 0 .788.637 1.43 1.42 1.43.782 0 1.42-.642 1.42-1.43 0-.789-.638-1.43-1.42-1.43zm0 2.296a.866.866 0 01-.859-.866c0-.479.384-.867.859-.867.472 0 .856.39.856.867a.86.86 0 01-.856.866zm4.242-2.296c-.783 0-1.42.641-1.42 1.43 0 .788.637 1.43 1.42 1.43.782 0 1.42-.642 1.42-1.43 0-.789-.638-1.43-1.42-1.43zm0 2.296a.863.863 0 01-.856-.866c0-.479.383-.867.856-.867s.856.39.856.867a.862.862 0 01-.856.866zm2.9-1.734l.175-.6c-.334-.018-.641.06-.895.3-.21.198-.334.462-.34.86-.007.41-.007 1.068-.005 1.636h.586a28.011 28.011 0 01-.01-1.488c.012-.47.148-.652.489-.709zM13.066 4.484v16.28H9.635l.077-10.599A7.097 7.097 0 016.5 11.181V7.557c1.801-.178 3.334-1.396 3.407-3.073h3.16zM20.586 4c2.547 0 4.542 1.434 5.63 3.752L23.42 9.329c-.63-1.137-1.604-2.034-2.778-2.054-.91-.013-1.735.36-2.303 1.346-.377.652-.508 2.038-.354 2.92.768-.916 2.004-1.37 3.211-1.356 3.206.032 5.107 2.736 4.943 5.625a7.46 7.46 0 01-.221 1.47c-.642 2.497-2.92 4.034-5.587 3.982-2.066-.04-4.229-1.088-5.113-3.55-.193-.534-.31-1.132-.38-1.793-.228-2.147-.234-4.497-.015-6.403.115-.988.375-2.152.93-2.952C16.884 4.94 18.746 4 20.586 4zm-.144 9.058c-1.276-.018-2.45.975-2.472 2.53.028 1.464 1.075 2.41 2.373 2.465 1.324.054 2.547-.914 2.61-2.398.059-1.369-.956-2.576-2.51-2.597z" fill="#fff" style="mix-blend-mode:luminosity"/><path d="M20.586 4c2.547 0 4.542 1.434 5.63 3.752L23.42 9.329c-.63-1.137-1.604-2.034-2.778-2.054-.91-.013-1.735.36-2.303 1.346-.377.652-.508 2.038-.354 2.92.768-.916 2.004-1.37 3.211-1.356 3.206.032 5.107 2.736 4.943 5.625a7.46 7.46 0 01-.221 1.47c-.642 2.497-2.92 4.034-5.587 3.982-2.066-.04-4.229-1.088-5.113-3.55-.193-.534-.31-1.132-.38-1.793-.228-2.147-.234-4.497-.015-6.403.115-.988.375-2.152.93-2.952C16.884 4.94 18.746 4 20.586 4zm-.144 9.058c-1.276-.018-2.45.975-2.472 2.53.028 1.464 1.075 2.41 2.373 2.465 1.324.054 2.547-.914 2.61-2.398.059-1.369-.956-2.576-2.51-2.597z" stroke="#fff"/></svg>